<?xml version="1.0" standalone="no"?><!DOCTYPE svg PUBLIC "-//W3C//DTD SVG 1.1//EN" "http://www.w3.org/Graphics/SVG/1.1/DTD/svg11.dtd"><svg t="1552975307328" class="icon" style="" viewBox="0 0 1024 1024" version="1.1" xmlns="http://www.w3.org/2000/svg" p-id="2238" xmlns:xlink="http://www.w3.org/1999/xlink" width="32" height="32"><defs><style type="text/css"></style></defs><path d="M828.571429 624.342857c-44.228571-14.742857-103.657143-37.371429-169.714286-61.257143 39.771429-68.914286 71.428571-147.428571 92.228571-232.685714H533.142857v-78.4h266.971429v-43.771429H533.142857V77.714286h-109.028571c-19.085714 0-19.085714 18.857143-19.085715 18.857143v111.771428H135.085714v43.771429h270.057143v78.4H182.171429v43.771428h432.457142a762.491429 762.491429 0 0 1-62.285714 151.885715c-140.342857-46.171429-290.057143-83.657143-384.114286-60.571429-60.114286 14.857143-98.857143 41.257143-121.714285 68.914286-104.457143 126.857143-29.6 319.542857 191.085714 319.542857C368 853.942857 493.714286 781.257143 591.085714 661.714286 736.342857 731.428571 1024 851.085714 1024 851.085714V680.457143s-36.114286-2.857143-195.428571-56.114286zM217.028571 780.114286c-172 0-222.857143-135.2-137.828571-209.257143 28.342857-25.028571 80.228571-37.257143 107.885714-40 102.171429-10.057143 196.8 28.8 308.457143 83.2-78.628571 102.285714-178.628571 166.057143-278.514286 166.057143z" p-id="2239"></path></svg>