<?xml version="1.0" standalone="no"?><!DOCTYPE svg PUBLIC "-//W3C//DTD SVG 1.1//EN" "http://www.w3.org/Graphics/SVG/1.1/DTD/svg11.dtd"><svg t="1554187794499" class="icon" style="" viewBox="0 0 1024 1024" version="1.1" xmlns="http://www.w3.org/2000/svg" p-id="2048" xmlns:xlink="http://www.w3.org/1999/xlink" width="32" height="32"><defs><style type="text/css"></style></defs><path d="M703.826 958.533c-6.733 0-13.404-2.946-17.936-8.613-7.923-9.896-6.323-24.345 3.576-32.268 123.506-98.861 194.34-246.185 194.34-404.19 0-160.79-72.872-309.721-199.927-408.603-10.007-7.789-11.804-22.213-4.02-32.22 7.793-9.999 22.217-11.8 32.22-4.018 138.314 107.647 217.643 269.781 217.643 444.84 0 172.026-77.111 332.412-211.566 440.034a22.833 22.833 0 0 1-14.33 5.038zM200.36 333.983c60.47 0 109.492-49.021 109.492-109.492s-49.02-109.492-109.492-109.492S90.869 164.02 90.869 224.49 139.89 333.983 200.36 333.983z m0 565.121c60.47 0 109.492-49.021 109.492-109.492S260.832 680.12 200.361 680.12 90.869 729.142 90.869 789.612 139.89 899.104 200.36 899.104z" p-id="2049"></path></svg>